<mxfile host="Electron" agent="Mozilla/5.0 (Windows NT 10.0; Win64; x64) AppleWebKit/537.36 (KHTML, like Gecko) draw.io/22.0.3 Chrome/114.0.5735.289 Electron/25.8.4 Safari/537.36" modified="2024-10-24T08:33:09.440Z" etag="jQBXUJpUxg_8YbXF2Q4A" version="22.0.3" type="device">
  <diagram name="第 1 页" id="qMEkjsjmqvBWOYWQIjs2">
    <mxGraphModel dx="3489" dy="2240" grid="1" gridSize="10" guides="1" tooltips="1" connect="1" arrows="1" fold="1" page="0" pageScale="1" pageWidth="827" pageHeight="1169" math="0" shadow="0">
      <root>
        <mxCell id="0" />
        <mxCell id="1" parent="0" />
        <mxCell id="LkTkyItPIDJJ6-VaHPxY-1" value="User&lt;span style=&quot;background-color: initial;&quot;&gt;s&lt;/span&gt;" style="shape=umlActor;verticalLabelPosition=bottom;verticalAlign=top;html=1;outlineConnect=0;strokeWidth=3;" parent="1" vertex="1">
          <mxGeometry x="90" y="439" width="30" height="60" as="geometry" />
        </mxCell>
        <mxCell id="LkTkyItPIDJJ6-VaHPxY-2" value="Uploader" style="shape=umlActor;verticalLabelPosition=bottom;verticalAlign=top;html=1;outlineConnect=0;strokeWidth=3;" parent="1" vertex="1">
          <mxGeometry x="90" y="740" width="30" height="60" as="geometry" />
        </mxCell>
        <mxCell id="LkTkyItPIDJJ6-VaHPxY-3" value="VIP" style="shape=umlActor;verticalLabelPosition=bottom;verticalAlign=top;html=1;outlineConnect=0;strokeWidth=3;" parent="1" vertex="1">
          <mxGeometry x="90" y="43" width="30" height="60" as="geometry" />
        </mxCell>
        <mxCell id="LkTkyItPIDJJ6-VaHPxY-4" value="Administrator" style="shape=umlActor;verticalLabelPosition=bottom;verticalAlign=top;html=1;outlineConnect=0;strokeWidth=3;" parent="1" vertex="1">
          <mxGeometry x="1098" y="860" width="30" height="60" as="geometry" />
        </mxCell>
        <mxCell id="LkTkyItPIDJJ6-VaHPxY-5" value="Record dietary information" style="ellipse;whiteSpace=wrap;html=1;" parent="1" vertex="1">
          <mxGeometry x="190" y="-100" width="150" height="50" as="geometry" />
        </mxCell>
        <mxCell id="LkTkyItPIDJJ6-VaHPxY-6" value="Edit dietary records" style="ellipse;whiteSpace=wrap;html=1;" parent="1" vertex="1">
          <mxGeometry x="427" y="-98" width="150" height="50" as="geometry" />
        </mxCell>
        <mxCell id="LkTkyItPIDJJ6-VaHPxY-7" value="AI analysis records" style="ellipse;whiteSpace=wrap;html=1;aspect=fixed;" parent="1" vertex="1">
          <mxGeometry x="190" y="-193" width="150" height="50" as="geometry" />
        </mxCell>
        <mxCell id="LkTkyItPIDJJ6-VaHPxY-8" value="Implementation&lt;div&gt;&amp;nbsp;of&lt;span style=&quot;background-color: initial;&quot;&gt;&amp;nbsp;the&amp;nbsp;&lt;/span&gt;&lt;span style=&quot;background-color: initial;&quot;&gt;diet plan&lt;/span&gt;&lt;/div&gt;" style="ellipse;whiteSpace=wrap;html=1;" parent="1" vertex="1">
          <mxGeometry x="190" y="-7" width="150" height="50" as="geometry" />
        </mxCell>
        <mxCell id="LkTkyItPIDJJ6-VaHPxY-9" value="Publish the diet plans" style="ellipse;whiteSpace=wrap;html=1;aspect=fixed;" parent="1" vertex="1">
          <mxGeometry x="190" y="982" width="150" height="50" as="geometry" />
        </mxCell>
        <mxCell id="LkTkyItPIDJJ6-VaHPxY-10" value="Edit the diet plans" style="ellipse;whiteSpace=wrap;html=1;" parent="1" vertex="1">
          <mxGeometry x="423" y="764" width="150" height="50" as="geometry" />
        </mxCell>
        <mxCell id="LkTkyItPIDJJ6-VaHPxY-11" value="Delete the diet plans" style="ellipse;whiteSpace=wrap;html=1;" parent="1" vertex="1">
          <mxGeometry x="423" y="874" width="150" height="50" as="geometry" />
        </mxCell>
        <mxCell id="LkTkyItPIDJJ6-VaHPxY-12" value="Manage the diet plans" style="ellipse;whiteSpace=wrap;html=1;" parent="1" vertex="1">
          <mxGeometry x="670" y="874" width="150" height="50" as="geometry" />
        </mxCell>
        <mxCell id="LkTkyItPIDJJ6-VaHPxY-13" value="&amp;lt;&amp;lt;include&amp;gt;&amp;gt;" style="html=1;verticalAlign=bottom;endArrow=open;curved=0;rounded=0;endSize=10;endFill=0;exitX=1;exitY=0.5;exitDx=0;exitDy=0;entryX=0;entryY=0.5;entryDx=0;entryDy=0;dashed=1;" parent="1" source="LkTkyItPIDJJ6-VaHPxY-5" target="LkTkyItPIDJJ6-VaHPxY-6" edge="1">
          <mxGeometry x="-0.1765" y="9" width="80" relative="1" as="geometry">
            <mxPoint x="165" y="810" as="sourcePoint" />
            <mxPoint x="245" y="810" as="targetPoint" />
            <mxPoint as="offset" />
          </mxGeometry>
        </mxCell>
        <mxCell id="LkTkyItPIDJJ6-VaHPxY-14" value="Setup completion status" style="ellipse;whiteSpace=wrap;html=1;" parent="1" vertex="1">
          <mxGeometry x="427" y="96" width="150" height="50" as="geometry" />
        </mxCell>
        <mxCell id="LkTkyItPIDJJ6-VaHPxY-15" value="Delete dietary records" style="ellipse;whiteSpace=wrap;html=1;" parent="1" vertex="1">
          <mxGeometry x="427" y="-7" width="150" height="50" as="geometry" />
        </mxCell>
        <mxCell id="LkTkyItPIDJJ6-VaHPxY-16" value="" style="endArrow=none;endFill=0;endSize=15;html=1;rounded=0;entryX=0;entryY=0.5;entryDx=0;entryDy=0;" parent="1" target="LkTkyItPIDJJ6-VaHPxY-5" edge="1">
          <mxGeometry width="160" relative="1" as="geometry">
            <mxPoint x="130" y="460" as="sourcePoint" />
            <mxPoint x="430" y="580" as="targetPoint" />
          </mxGeometry>
        </mxCell>
        <mxCell id="LkTkyItPIDJJ6-VaHPxY-17" value="" style="endArrow=none;endFill=0;endSize=15;html=1;rounded=0;entryX=0;entryY=0.5;entryDx=0;entryDy=0;targetPerimeterSpacing=1;" parent="1" target="LkTkyItPIDJJ6-VaHPxY-8" edge="1">
          <mxGeometry width="160" relative="1" as="geometry">
            <mxPoint x="130" y="460" as="sourcePoint" />
            <mxPoint x="430" y="580" as="targetPoint" />
          </mxGeometry>
        </mxCell>
        <mxCell id="LkTkyItPIDJJ6-VaHPxY-18" value="&amp;lt;&amp;lt;include&amp;gt;&amp;gt;" style="html=1;verticalAlign=bottom;endArrow=open;curved=0;rounded=0;exitX=1;exitY=0.5;exitDx=0;exitDy=0;entryX=0;entryY=0.5;entryDx=0;entryDy=0;endFill=0;endSize=10;dashed=1;" parent="1" source="LkTkyItPIDJJ6-VaHPxY-5" target="LkTkyItPIDJJ6-VaHPxY-15" edge="1">
          <mxGeometry x="0.0954" y="-25" width="80" relative="1" as="geometry">
            <mxPoint x="310" y="490" as="sourcePoint" />
            <mxPoint x="390" y="490" as="targetPoint" />
            <mxPoint as="offset" />
          </mxGeometry>
        </mxCell>
        <mxCell id="LkTkyItPIDJJ6-VaHPxY-19" value="&amp;lt;&amp;lt;include&amp;gt;&amp;gt;" style="endArrow=open;endSize=10;dashed=1;html=1;rounded=0;exitX=1;exitY=0.5;exitDx=0;exitDy=0;entryX=0;entryY=0.5;entryDx=0;entryDy=0;" parent="1" source="LkTkyItPIDJJ6-VaHPxY-8" target="LkTkyItPIDJJ6-VaHPxY-14" edge="1">
          <mxGeometry x="0.3429" y="20" width="160" relative="1" as="geometry">
            <mxPoint x="270" y="490" as="sourcePoint" />
            <mxPoint x="430" y="490" as="targetPoint" />
            <mxPoint as="offset" />
          </mxGeometry>
        </mxCell>
        <mxCell id="LkTkyItPIDJJ6-VaHPxY-20" value="" style="endArrow=none;endFill=0;endSize=12;html=1;rounded=0;entryX=0;entryY=0.5;entryDx=0;entryDy=0;" parent="1" target="LkTkyItPIDJJ6-VaHPxY-9" edge="1">
          <mxGeometry width="160" relative="1" as="geometry">
            <mxPoint x="130" y="760" as="sourcePoint" />
            <mxPoint x="580" y="523" as="targetPoint" />
          </mxGeometry>
        </mxCell>
        <mxCell id="LkTkyItPIDJJ6-VaHPxY-21" value="&amp;lt;&amp;lt;include&amp;gt;&amp;gt;" style="endArrow=open;endSize=10;dashed=1;html=1;rounded=0;exitX=1;exitY=0.5;exitDx=0;exitDy=0;entryX=0;entryY=0.5;entryDx=0;entryDy=0;" parent="1" source="LkTkyItPIDJJ6-VaHPxY-9" target="LkTkyItPIDJJ6-VaHPxY-10" edge="1">
          <mxGeometry x="-0.0805" y="14" width="160" relative="1" as="geometry">
            <mxPoint x="420" y="523" as="sourcePoint" />
            <mxPoint x="580" y="523" as="targetPoint" />
            <mxPoint as="offset" />
          </mxGeometry>
        </mxCell>
        <mxCell id="LkTkyItPIDJJ6-VaHPxY-22" value="&amp;lt;&amp;lt;include&amp;gt;&amp;gt;" style="endArrow=open;endSize=10;dashed=1;html=1;rounded=0;exitX=1;exitY=0.5;exitDx=0;exitDy=0;entryX=0;entryY=0.5;entryDx=0;entryDy=0;" parent="1" source="LkTkyItPIDJJ6-VaHPxY-9" target="LkTkyItPIDJJ6-VaHPxY-11" edge="1">
          <mxGeometry x="-0.044" y="-17" width="160" relative="1" as="geometry">
            <mxPoint x="420" y="523" as="sourcePoint" />
            <mxPoint x="580" y="523" as="targetPoint" />
            <mxPoint as="offset" />
          </mxGeometry>
        </mxCell>
        <mxCell id="LkTkyItPIDJJ6-VaHPxY-24" value="&amp;lt;&amp;lt;include&amp;gt;&amp;gt;" style="endArrow=open;endSize=10;dashed=1;html=1;rounded=0;exitX=0;exitY=0.5;exitDx=0;exitDy=0;entryX=1;entryY=0.5;entryDx=0;entryDy=0;" parent="1" source="LkTkyItPIDJJ6-VaHPxY-12" target="LkTkyItPIDJJ6-VaHPxY-10" edge="1">
          <mxGeometry x="-0.0882" y="-21" width="160" relative="1" as="geometry">
            <mxPoint x="420" y="523" as="sourcePoint" />
            <mxPoint x="580" y="523" as="targetPoint" />
            <mxPoint as="offset" />
          </mxGeometry>
        </mxCell>
        <mxCell id="LkTkyItPIDJJ6-VaHPxY-25" value="&amp;lt;&amp;lt;include&amp;gt;&amp;gt;" style="endArrow=open;endSize=10;dashed=1;html=1;rounded=0;exitX=0;exitY=0.5;exitDx=0;exitDy=0;entryX=1;entryY=0.5;entryDx=0;entryDy=0;" parent="1" source="LkTkyItPIDJJ6-VaHPxY-12" target="LkTkyItPIDJJ6-VaHPxY-11" edge="1">
          <mxGeometry x="-0.0498" y="19" width="160" relative="1" as="geometry">
            <mxPoint x="420" y="523" as="sourcePoint" />
            <mxPoint x="580" y="523" as="targetPoint" />
            <mxPoint as="offset" />
          </mxGeometry>
        </mxCell>
        <mxCell id="LkTkyItPIDJJ6-VaHPxY-26" value="&amp;lt;&amp;lt;extend&amp;gt;&amp;gt;" style="endArrow=open;endSize=10;dashed=1;html=1;rounded=0;exitX=0.5;exitY=1;exitDx=0;exitDy=0;" parent="1" source="LkTkyItPIDJJ6-VaHPxY-7" target="LkTkyItPIDJJ6-VaHPxY-5" edge="1">
          <mxGeometry x="-0.1111" y="37" width="160" relative="1" as="geometry">
            <mxPoint x="420" y="444" as="sourcePoint" />
            <mxPoint x="580" y="444" as="targetPoint" />
            <mxPoint as="offset" />
          </mxGeometry>
        </mxCell>
        <mxCell id="LkTkyItPIDJJ6-VaHPxY-27" value="" style="endArrow=none;endFill=0;endSize=12;html=1;rounded=0;entryX=0;entryY=0.5;entryDx=0;entryDy=0;" parent="1" source="LkTkyItPIDJJ6-VaHPxY-3" target="LkTkyItPIDJJ6-VaHPxY-7" edge="1">
          <mxGeometry width="160" relative="1" as="geometry">
            <mxPoint x="420" y="444" as="sourcePoint" />
            <mxPoint x="580" y="444" as="targetPoint" />
          </mxGeometry>
        </mxCell>
        <mxCell id="LkTkyItPIDJJ6-VaHPxY-28" value="" style="endArrow=block;endFill=0;endSize=10;html=1;rounded=0;" parent="1" edge="1">
          <mxGeometry width="160" relative="1" as="geometry">
            <mxPoint x="105" y="732" as="sourcePoint" />
            <mxPoint x="105" y="530" as="targetPoint" />
          </mxGeometry>
        </mxCell>
        <mxCell id="LkTkyItPIDJJ6-VaHPxY-29" value="" style="endArrow=block;endFill=0;endSize=10;html=1;rounded=0;" parent="1" edge="1">
          <mxGeometry width="160" relative="1" as="geometry">
            <mxPoint x="105" y="128" as="sourcePoint" />
            <mxPoint x="105" y="430" as="targetPoint" />
          </mxGeometry>
        </mxCell>
        <mxCell id="LkTkyItPIDJJ6-VaHPxY-30" style="edgeStyle=orthogonalEdgeStyle;rounded=0;orthogonalLoop=1;jettySize=auto;html=1;endArrow=block;endFill=0;endSize=10;" parent="1" edge="1">
          <mxGeometry relative="1" as="geometry">
            <mxPoint x="1119" y="942" as="sourcePoint" />
            <mxPoint x="79" y="514" as="targetPoint" />
            <Array as="points">
              <mxPoint x="1119" y="1100" />
              <mxPoint x="44" y="1100" />
              <mxPoint x="44" y="514" />
            </Array>
          </mxGeometry>
        </mxCell>
        <mxCell id="LkTkyItPIDJJ6-VaHPxY-33" value="View diet plan" style="ellipse;whiteSpace=wrap;html=1;" parent="1" vertex="1">
          <mxGeometry x="427" y="204" width="150" height="50" as="geometry" />
        </mxCell>
        <mxCell id="LkTkyItPIDJJ6-VaHPxY-34" value="&amp;lt;&amp;lt;include&amp;gt;&amp;gt;" style="endArrow=open;endSize=10;dashed=1;html=1;rounded=0;exitX=1;exitY=0.5;exitDx=0;exitDy=0;entryX=0;entryY=0.5;entryDx=0;entryDy=0;" parent="1" source="LkTkyItPIDJJ6-VaHPxY-8" target="LkTkyItPIDJJ6-VaHPxY-33" edge="1">
          <mxGeometry x="0.0191" y="-11" width="160" relative="1" as="geometry">
            <mxPoint x="303" y="549" as="sourcePoint" />
            <mxPoint x="435" y="540" as="targetPoint" />
            <mxPoint as="offset" />
          </mxGeometry>
        </mxCell>
        <mxCell id="LkTkyItPIDJJ6-VaHPxY-71" style="rounded=0;orthogonalLoop=1;jettySize=auto;html=1;exitX=0;exitY=0;exitDx=0;exitDy=0;dashed=1;endArrow=open;endFill=0;endSize=10;" parent="1" source="LkTkyItPIDJJ6-VaHPxY-77" target="LkTkyItPIDJJ6-VaHPxY-78" edge="1">
          <mxGeometry relative="1" as="geometry" />
        </mxCell>
        <mxCell id="LkTkyItPIDJJ6-VaHPxY-73" style="rounded=0;orthogonalLoop=1;jettySize=auto;html=1;entryX=0.5;entryY=0;entryDx=0;entryDy=0;endArrow=open;endFill=0;dashed=1;endSize=10;" parent="1" source="LkTkyItPIDJJ6-VaHPxY-77" target="LkTkyItPIDJJ6-VaHPxY-79" edge="1">
          <mxGeometry relative="1" as="geometry" />
        </mxCell>
        <mxCell id="LkTkyItPIDJJ6-VaHPxY-74" value="&amp;lt;&amp;lt;include&amp;gt;&amp;gt;" style="edgeLabel;html=1;align=center;verticalAlign=middle;resizable=0;points=[];" parent="LkTkyItPIDJJ6-VaHPxY-73" vertex="1" connectable="0">
          <mxGeometry x="-0.1635" relative="1" as="geometry">
            <mxPoint x="-6" y="-12" as="offset" />
          </mxGeometry>
        </mxCell>
        <mxCell id="LkTkyItPIDJJ6-VaHPxY-75" style="rounded=0;orthogonalLoop=1;jettySize=auto;html=1;exitX=1;exitY=0.5;exitDx=0;exitDy=0;entryX=0;entryY=0.5;entryDx=0;entryDy=0;endSize=10;endArrow=open;endFill=0;dashed=1;" parent="1" source="LkTkyItPIDJJ6-VaHPxY-77" target="LkTkyItPIDJJ6-VaHPxY-93" edge="1">
          <mxGeometry relative="1" as="geometry" />
        </mxCell>
        <mxCell id="LkTkyItPIDJJ6-VaHPxY-76" value="&amp;lt;&amp;lt;include&amp;gt;&amp;gt;" style="edgeLabel;html=1;align=center;verticalAlign=middle;resizable=0;points=[];rotation=0;" parent="LkTkyItPIDJJ6-VaHPxY-75" vertex="1" connectable="0">
          <mxGeometry x="-0.1078" y="1" relative="1" as="geometry">
            <mxPoint x="-22" y="-58" as="offset" />
          </mxGeometry>
        </mxCell>
        <mxCell id="LkTkyItPIDJJ6-VaHPxY-77" value="Register" style="ellipse;whiteSpace=wrap;html=1;aspect=fixed;" parent="1" vertex="1">
          <mxGeometry x="-183" y="260" width="150" height="50" as="geometry" />
        </mxCell>
        <mxCell id="LkTkyItPIDJJ6-VaHPxY-78" value="Set personal info" style="ellipse;whiteSpace=wrap;html=1;aspect=fixed;" parent="1" vertex="1">
          <mxGeometry x="-427" y="260" width="150" height="50" as="geometry" />
        </mxCell>
        <mxCell id="LkTkyItPIDJJ6-VaHPxY-79" value="Set user password" style="ellipse;whiteSpace=wrap;html=1;aspect=fixed;" parent="1" vertex="1">
          <mxGeometry x="-427" y="523" width="150" height="50" as="geometry" />
        </mxCell>
        <mxCell id="LkTkyItPIDJJ6-VaHPxY-80" style="rounded=0;orthogonalLoop=1;jettySize=auto;html=1;entryX=0.5;entryY=1;entryDx=0;entryDy=0;endSize=10;endArrow=open;endFill=0;dashed=1;" parent="1" source="LkTkyItPIDJJ6-VaHPxY-84" target="LkTkyItPIDJJ6-VaHPxY-78" edge="1">
          <mxGeometry relative="1" as="geometry" />
        </mxCell>
        <mxCell id="LkTkyItPIDJJ6-VaHPxY-81" value="&amp;lt;&amp;lt;extend&amp;gt;&amp;gt;" style="edgeLabel;html=1;align=center;verticalAlign=middle;resizable=0;points=[];" parent="LkTkyItPIDJJ6-VaHPxY-80" vertex="1" connectable="0">
          <mxGeometry x="-0.1405" y="1" relative="1" as="geometry">
            <mxPoint x="-56" y="-1" as="offset" />
          </mxGeometry>
        </mxCell>
        <mxCell id="LkTkyItPIDJJ6-VaHPxY-82" style="rounded=0;orthogonalLoop=1;jettySize=auto;html=1;exitX=0.5;exitY=1;exitDx=0;exitDy=0;endSize=10;endArrow=open;endFill=0;dashed=1;" parent="1" source="LkTkyItPIDJJ6-VaHPxY-84" target="LkTkyItPIDJJ6-VaHPxY-79" edge="1">
          <mxGeometry relative="1" as="geometry" />
        </mxCell>
        <mxCell id="LkTkyItPIDJJ6-VaHPxY-83" value="&amp;lt;&amp;lt;extend&amp;gt;&amp;gt;" style="edgeLabel;html=1;align=center;verticalAlign=middle;resizable=0;points=[];" parent="LkTkyItPIDJJ6-VaHPxY-82" vertex="1" connectable="0">
          <mxGeometry x="0.0905" y="2" relative="1" as="geometry">
            <mxPoint x="27" y="-30" as="offset" />
          </mxGeometry>
        </mxCell>
        <mxCell id="LkTkyItPIDJJ6-VaHPxY-84" value="Login in" style="ellipse;whiteSpace=wrap;html=1;aspect=fixed;" parent="1" vertex="1">
          <mxGeometry x="-183" y="379" width="150" height="50" as="geometry" />
        </mxCell>
        <mxCell id="LkTkyItPIDJJ6-VaHPxY-85" style="rounded=0;orthogonalLoop=1;jettySize=auto;html=1;exitX=0.5;exitY=1;exitDx=0;exitDy=0;endSize=10;dashed=1;endArrow=open;endFill=0;entryX=1;entryY=1;entryDx=0;entryDy=0;" parent="1" source="LkTkyItPIDJJ6-VaHPxY-89" target="LkTkyItPIDJJ6-VaHPxY-79" edge="1">
          <mxGeometry relative="1" as="geometry">
            <mxPoint x="-568" y="571" as="targetPoint" />
          </mxGeometry>
        </mxCell>
        <mxCell id="LkTkyItPIDJJ6-VaHPxY-86" value="&amp;lt;&amp;lt;include&amp;gt;&amp;gt;" style="edgeLabel;html=1;align=center;verticalAlign=middle;resizable=0;points=[];" parent="LkTkyItPIDJJ6-VaHPxY-85" vertex="1" connectable="0">
          <mxGeometry x="-0.2154" y="-2" relative="1" as="geometry">
            <mxPoint x="-31" y="-25" as="offset" />
          </mxGeometry>
        </mxCell>
        <mxCell id="LkTkyItPIDJJ6-VaHPxY-87" style="rounded=0;orthogonalLoop=1;jettySize=auto;html=1;exitX=1;exitY=1;exitDx=0;exitDy=0;entryX=0.5;entryY=1;entryDx=0;entryDy=0;dashed=1;endSize=10;endArrow=open;endFill=0;" parent="1" source="LkTkyItPIDJJ6-VaHPxY-89" target="LkTkyItPIDJJ6-VaHPxY-93" edge="1">
          <mxGeometry relative="1" as="geometry" />
        </mxCell>
        <mxCell id="LkTkyItPIDJJ6-VaHPxY-88" value="&amp;lt;&amp;lt;include&amp;gt;&amp;gt;" style="edgeLabel;html=1;align=center;verticalAlign=middle;resizable=0;points=[];" parent="LkTkyItPIDJJ6-VaHPxY-87" vertex="1" connectable="0">
          <mxGeometry x="0.0993" y="-3" relative="1" as="geometry">
            <mxPoint x="45" y="-2" as="offset" />
          </mxGeometry>
        </mxCell>
        <mxCell id="LkTkyItPIDJJ6-VaHPxY-89" value="Reset Password" style="ellipse;whiteSpace=wrap;html=1;aspect=fixed;" parent="1" vertex="1">
          <mxGeometry x="-183" y="519" width="150" height="50" as="geometry" />
        </mxCell>
        <mxCell id="LkTkyItPIDJJ6-VaHPxY-90" style="edgeStyle=entityRelationEdgeStyle;rounded=0;orthogonalLoop=1;jettySize=auto;html=1;endSize=15;endArrow=open;endFill=0;dashed=1;entryX=0.644;entryY=0.965;entryDx=0;entryDy=0;entryPerimeter=0;" parent="1" source="LkTkyItPIDJJ6-VaHPxY-92" target="LkTkyItPIDJJ6-VaHPxY-84" edge="1">
          <mxGeometry relative="1" as="geometry">
            <Array as="points">
              <mxPoint x="-868" y="571" />
              <mxPoint x="-20" y="540" />
              <mxPoint x="-30" y="440" />
            </Array>
            <mxPoint x="-45" y="838" as="targetPoint" />
          </mxGeometry>
        </mxCell>
        <mxCell id="LkTkyItPIDJJ6-VaHPxY-91" value="&amp;lt;&amp;lt;include&amp;gt;&amp;gt;" style="edgeLabel;html=1;align=center;verticalAlign=middle;resizable=0;points=[];" parent="LkTkyItPIDJJ6-VaHPxY-90" vertex="1" connectable="0">
          <mxGeometry x="-0.0746" relative="1" as="geometry">
            <mxPoint x="-9" y="57" as="offset" />
          </mxGeometry>
        </mxCell>
        <mxCell id="LkTkyItPIDJJ6-VaHPxY-92" value="Delete Account" style="ellipse;whiteSpace=wrap;html=1;aspect=fixed;" parent="1" vertex="1">
          <mxGeometry x="-183" y="629" width="150" height="50" as="geometry" />
        </mxCell>
        <mxCell id="LkTkyItPIDJJ6-VaHPxY-93" value="Verify personal info" style="ellipse;whiteSpace=wrap;html=1;aspect=fixed;" parent="1" vertex="1">
          <mxGeometry x="-427" y="379" width="150" height="50" as="geometry" />
        </mxCell>
        <mxCell id="LkTkyItPIDJJ6-VaHPxY-102" value="" style="endArrow=none;endFill=0;endSize=15;html=1;rounded=0;exitX=1;exitY=1;exitDx=0;exitDy=0;" parent="1" source="LkTkyItPIDJJ6-VaHPxY-77" edge="1">
          <mxGeometry width="160" relative="1" as="geometry">
            <mxPoint x="124" y="449" as="sourcePoint" />
            <mxPoint x="80" y="460" as="targetPoint" />
          </mxGeometry>
        </mxCell>
        <mxCell id="LkTkyItPIDJJ6-VaHPxY-103" value="" style="endArrow=none;endFill=0;endSize=15;html=1;rounded=0;exitX=1;exitY=0.5;exitDx=0;exitDy=0;" parent="1" source="LkTkyItPIDJJ6-VaHPxY-84" edge="1">
          <mxGeometry width="160" relative="1" as="geometry">
            <mxPoint x="7" y="356" as="sourcePoint" />
            <mxPoint x="80" y="460" as="targetPoint" />
          </mxGeometry>
        </mxCell>
        <mxCell id="LkTkyItPIDJJ6-VaHPxY-104" value="" style="endArrow=none;endFill=0;endSize=15;html=1;rounded=0;exitX=1;exitY=0;exitDx=0;exitDy=0;" parent="1" source="LkTkyItPIDJJ6-VaHPxY-89" edge="1">
          <mxGeometry width="160" relative="1" as="geometry">
            <mxPoint x="17" y="366" as="sourcePoint" />
            <mxPoint x="80" y="460" as="targetPoint" />
          </mxGeometry>
        </mxCell>
        <mxCell id="LkTkyItPIDJJ6-VaHPxY-105" value="" style="endArrow=none;endFill=0;endSize=15;html=1;rounded=0;exitX=0.5;exitY=0;exitDx=0;exitDy=0;" parent="1" source="LkTkyItPIDJJ6-VaHPxY-92" edge="1">
          <mxGeometry width="160" relative="1" as="geometry">
            <mxPoint x="27" y="376" as="sourcePoint" />
            <mxPoint x="80" y="460" as="targetPoint" />
          </mxGeometry>
        </mxCell>
        <mxCell id="LkTkyItPIDJJ6-VaHPxY-112" value="Release tutorial" style="ellipse;whiteSpace=wrap;html=1;" parent="1" vertex="1">
          <mxGeometry x="190" y="766" width="150" height="50" as="geometry" />
        </mxCell>
        <mxCell id="LkTkyItPIDJJ6-VaHPxY-117" value="" style="endArrow=open;endFill=1;endSize=12;html=1;rounded=0;entryX=0;entryY=0.5;entryDx=0;entryDy=0;" parent="1" target="LkTkyItPIDJJ6-VaHPxY-112" edge="1">
          <mxGeometry width="160" relative="1" as="geometry">
            <mxPoint x="130" y="760" as="sourcePoint" />
            <mxPoint x="207" y="760" as="targetPoint" />
          </mxGeometry>
        </mxCell>
        <mxCell id="LkTkyItPIDJJ6-VaHPxY-118" value="" style="endArrow=none;endFill=0;endSize=12;html=1;rounded=0;entryX=0;entryY=1;entryDx=0;entryDy=0;" parent="1" target="LkTkyItPIDJJ6-VaHPxY-216" edge="1">
          <mxGeometry width="160" relative="1" as="geometry">
            <mxPoint x="130" y="460" as="sourcePoint" />
            <mxPoint x="169" y="442" as="targetPoint" />
          </mxGeometry>
        </mxCell>
        <mxCell id="LkTkyItPIDJJ6-VaHPxY-119" value="Browse the tutorial" style="ellipse;whiteSpace=wrap;html=1;" parent="1" vertex="1">
          <mxGeometry x="190" y="96" width="150" height="50" as="geometry" />
        </mxCell>
        <mxCell id="LkTkyItPIDJJ6-VaHPxY-120" value="" style="endArrow=open;endFill=1;endSize=12;html=1;rounded=0;entryX=0;entryY=0.5;entryDx=0;entryDy=0;" parent="1" target="LkTkyItPIDJJ6-VaHPxY-119" edge="1">
          <mxGeometry width="160" relative="1" as="geometry">
            <mxPoint x="130" y="460" as="sourcePoint" />
            <mxPoint x="193" y="418" as="targetPoint" />
          </mxGeometry>
        </mxCell>
        <mxCell id="LkTkyItPIDJJ6-VaHPxY-121" value="&amp;lt;&amp;lt;include&amp;gt;&amp;gt;" style="endArrow=open;endSize=12;dashed=1;html=1;rounded=0;exitX=0.5;exitY=1;exitDx=0;exitDy=0;entryX=0.5;entryY=0;entryDx=0;entryDy=0;" parent="1" source="LkTkyItPIDJJ6-VaHPxY-112" target="LkTkyItPIDJJ6-VaHPxY-132" edge="1">
          <mxGeometry x="-0.0333" y="40" width="160" relative="1" as="geometry">
            <mxPoint x="287.77999999999975" y="703.9999999999999" as="sourcePoint" />
            <mxPoint x="288" y="768" as="targetPoint" />
            <mxPoint as="offset" />
          </mxGeometry>
        </mxCell>
        <mxCell id="LkTkyItPIDJJ6-VaHPxY-122" value="&amp;lt;&amp;lt;include&amp;gt;&amp;gt;" style="endArrow=open;endSize=12;dashed=1;html=1;rounded=0;entryX=0;entryY=0;entryDx=0;entryDy=0;exitX=1;exitY=0.5;exitDx=0;exitDy=0;" parent="1" source="LkTkyItPIDJJ6-VaHPxY-216" target="LkTkyItPIDJJ6-VaHPxY-219" edge="1">
          <mxGeometry x="-0.1458" y="25" width="160" relative="1" as="geometry">
            <mxPoint x="1582" y="519.9999999999999" as="sourcePoint" />
            <mxPoint x="1582" y="580" as="targetPoint" />
            <mxPoint as="offset" />
          </mxGeometry>
        </mxCell>
        <mxCell id="LkTkyItPIDJJ6-VaHPxY-123" value="&amp;lt;&amp;lt;include&amp;gt;&amp;gt;" style="endArrow=open;endSize=12;dashed=1;html=1;rounded=0;entryX=0.5;entryY=0;entryDx=0;entryDy=0;exitX=0.5;exitY=1;exitDx=0;exitDy=0;" parent="1" source="LkTkyItPIDJJ6-VaHPxY-216" target="LkTkyItPIDJJ6-VaHPxY-218" edge="1">
          <mxGeometry x="-0.469" y="27" width="160" relative="1" as="geometry">
            <mxPoint x="1512" y="367" as="sourcePoint" />
            <mxPoint x="1622" y="334" as="targetPoint" />
            <mxPoint as="offset" />
          </mxGeometry>
        </mxCell>
        <mxCell id="LkTkyItPIDJJ6-VaHPxY-124" value="&amp;lt;&amp;lt;include&amp;gt;&amp;gt;" style="endArrow=open;endSize=12;dashed=1;html=1;rounded=0;entryX=0;entryY=1;entryDx=0;entryDy=0;exitX=1;exitY=0.5;exitDx=0;exitDy=0;" parent="1" source="LkTkyItPIDJJ6-VaHPxY-219" target="LkTkyItPIDJJ6-VaHPxY-220" edge="1">
          <mxGeometry x="-0.0018" y="20" width="160" relative="1" as="geometry">
            <mxPoint x="1512" y="402" as="sourcePoint" />
            <mxPoint x="1582" y="404" as="targetPoint" />
            <mxPoint x="-1" as="offset" />
          </mxGeometry>
        </mxCell>
        <mxCell id="LkTkyItPIDJJ6-VaHPxY-132" value="Get revenue" style="ellipse;whiteSpace=wrap;html=1;aspect=fixed;" parent="1" vertex="1">
          <mxGeometry x="186.87" y="874" width="156.25" height="50" as="geometry" />
        </mxCell>
        <mxCell id="LkTkyItPIDJJ6-VaHPxY-144" value="&amp;lt;&amp;lt;include&amp;gt;&amp;gt;" style="endArrow=open;endSize=12;dashed=1;html=1;rounded=0;entryX=0.5;entryY=0;entryDx=0;entryDy=0;exitX=0.5;exitY=1;exitDx=0;exitDy=0;" parent="1" source="LkTkyItPIDJJ6-VaHPxY-219" target="LkTkyItPIDJJ6-VaHPxY-222" edge="1">
          <mxGeometry x="0.0667" y="-25" width="160" relative="1" as="geometry">
            <mxPoint x="1622" y="319" as="sourcePoint" />
            <mxPoint x="1672" y="319" as="targetPoint" />
            <mxPoint as="offset" />
          </mxGeometry>
        </mxCell>
        <mxCell id="LkTkyItPIDJJ6-VaHPxY-150" value="&amp;lt;&amp;lt;include&amp;gt;&amp;gt;" style="endArrow=open;endSize=12;dashed=1;html=1;rounded=0;exitX=1;exitY=0.5;exitDx=0;exitDy=0;entryX=0;entryY=0.5;entryDx=0;entryDy=0;" parent="1" source="LkTkyItPIDJJ6-VaHPxY-219" target="LkTkyItPIDJJ6-VaHPxY-223" edge="1">
          <mxGeometry x="0.0667" y="-25" width="160" relative="1" as="geometry">
            <mxPoint x="1552" y="299" as="sourcePoint" />
            <mxPoint x="1653" y="113" as="targetPoint" />
            <mxPoint as="offset" />
          </mxGeometry>
        </mxCell>
        <mxCell id="LkTkyItPIDJJ6-VaHPxY-157" value="" style="html=1;verticalAlign=bottom;endArrow=none;curved=0;rounded=0;endFill=0;entryX=0;entryY=0.5;entryDx=0;entryDy=0;" parent="1" target="LkTkyItPIDJJ6-VaHPxY-226" edge="1">
          <mxGeometry width="80" relative="1" as="geometry">
            <mxPoint x="130" y="460" as="sourcePoint" />
            <mxPoint x="1438" y="1088" as="targetPoint" />
          </mxGeometry>
        </mxCell>
        <mxCell id="LkTkyItPIDJJ6-VaHPxY-159" value="System" style="shape=umlActor;verticalLabelPosition=bottom;verticalAlign=top;html=1;outlineConnect=0;strokeWidth=3;" parent="1" vertex="1">
          <mxGeometry x="1098" y="479" width="30" height="60" as="geometry" />
        </mxCell>
        <mxCell id="LkTkyItPIDJJ6-VaHPxY-164" value="Use up to 5 &#xa;times a day" style="text;whiteSpace=wrap;" parent="1" vertex="1">
          <mxGeometry x="161" y="488" width="130" height="20" as="geometry" />
        </mxCell>
        <mxCell id="LkTkyItPIDJJ6-VaHPxY-165" value="" style="endArrow=openThin;html=1;rounded=0;exitX=1;exitY=0.5;exitDx=0;exitDy=0;entryX=0;entryY=0.5;entryDx=0;entryDy=0;dashed=1;endFill=0;" parent="1" source="LkTkyItPIDJJ6-VaHPxY-226" target="LkTkyItPIDJJ6-VaHPxY-230" edge="1">
          <mxGeometry width="50" height="50" relative="1" as="geometry">
            <mxPoint x="1568" y="1178" as="sourcePoint" />
            <mxPoint x="1618" y="1128" as="targetPoint" />
          </mxGeometry>
        </mxCell>
        <mxCell id="LkTkyItPIDJJ6-VaHPxY-166" value="&amp;lt;&amp;lt;include&amp;gt;&amp;gt;" style="text;html=1;align=center;verticalAlign=middle;resizable=0;points=[];autosize=1;strokeColor=none;fillColor=none;" parent="1" vertex="1">
          <mxGeometry x="333" y="501" width="90" height="30" as="geometry" />
        </mxCell>
        <mxCell id="LkTkyItPIDJJ6-VaHPxY-170" value="" style="endArrow=none;html=1;rounded=0;entryX=0;entryY=0.5;entryDx=0;entryDy=0;" parent="1" target="LkTkyItPIDJJ6-VaHPxY-228" edge="1">
          <mxGeometry width="50" height="50" relative="1" as="geometry">
            <mxPoint x="130" y="460" as="sourcePoint" />
            <mxPoint x="1608" y="898" as="targetPoint" />
          </mxGeometry>
        </mxCell>
        <mxCell id="LkTkyItPIDJJ6-VaHPxY-171" value="" style="endArrow=openThin;html=1;rounded=0;dashed=1;endFill=0;exitX=0.5;exitY=1;exitDx=0;exitDy=0;entryX=0.5;entryY=0;entryDx=0;entryDy=0;" parent="1" source="LkTkyItPIDJJ6-VaHPxY-228" target="LkTkyItPIDJJ6-VaHPxY-226" edge="1">
          <mxGeometry width="50" height="50" relative="1" as="geometry">
            <mxPoint x="522" y="555" as="sourcePoint" />
            <mxPoint x="1553" y="1063" as="targetPoint" />
          </mxGeometry>
        </mxCell>
        <mxCell id="LkTkyItPIDJJ6-VaHPxY-172" value="&amp;lt;&amp;lt;include&amp;gt;&amp;gt;" style="text;html=1;align=center;verticalAlign=middle;resizable=0;points=[];autosize=1;strokeColor=none;fillColor=none;" parent="1" vertex="1">
          <mxGeometry x="258" y="509" width="90" height="30" as="geometry" />
        </mxCell>
        <mxCell id="LkTkyItPIDJJ6-VaHPxY-179" value="" style="endArrow=none;html=1;rounded=0;endFill=0;" parent="1" edge="1">
          <mxGeometry width="50" height="50" relative="1" as="geometry">
            <mxPoint x="80" y="60" as="sourcePoint" />
            <mxPoint x="-30" y="171" as="targetPoint" />
          </mxGeometry>
        </mxCell>
        <mxCell id="LkTkyItPIDJJ6-VaHPxY-180" value="" style="endArrow=openThin;html=1;rounded=0;exitX=1;exitY=0.5;exitDx=0;exitDy=0;dashed=1;endFill=0;entryX=0;entryY=0;entryDx=0;entryDy=0;endSize=12;" parent="1" source="LkTkyItPIDJJ6-VaHPxY-246" target="LkTkyItPIDJJ6-VaHPxY-243" edge="1">
          <mxGeometry width="50" height="50" relative="1" as="geometry">
            <mxPoint x="1090" y="392" as="sourcePoint" />
            <mxPoint x="1090" y="282" as="targetPoint" />
          </mxGeometry>
        </mxCell>
        <mxCell id="LkTkyItPIDJJ6-VaHPxY-181" value="&amp;lt;&amp;lt;extend&amp;gt;&amp;gt;" style="text;html=1;align=center;verticalAlign=middle;resizable=0;points=[];autosize=1;strokeColor=none;fillColor=none;" parent="1" vertex="1">
          <mxGeometry x="20" y="295" width="90" height="30" as="geometry" />
        </mxCell>
        <mxCell id="LkTkyItPIDJJ6-VaHPxY-184" value="" style="endArrow=openThin;html=1;rounded=0;exitX=0;exitY=0.5;exitDx=0;exitDy=0;dashed=1;endFill=0;entryX=1;entryY=0.5;entryDx=0;entryDy=0;endSize=12;" parent="1" source="LkTkyItPIDJJ6-VaHPxY-188" target="LkTkyItPIDJJ6-VaHPxY-243" edge="1">
          <mxGeometry width="50" height="50" relative="1" as="geometry">
            <mxPoint x="1267.5735931288073" y="292.25126265847075" as="sourcePoint" />
            <mxPoint x="1132.4264068711927" y="271.74873734152925" as="targetPoint" />
          </mxGeometry>
        </mxCell>
        <mxCell id="LkTkyItPIDJJ6-VaHPxY-185" value="&amp;lt;&amp;lt;include&amp;gt;&amp;gt;" style="text;html=1;align=center;verticalAlign=middle;resizable=0;points=[];autosize=1;strokeColor=none;fillColor=none;" parent="1" vertex="1">
          <mxGeometry x="350" y="639" width="90" height="30" as="geometry" />
        </mxCell>
        <mxCell id="LkTkyItPIDJJ6-VaHPxY-188" value="Manage fitness equipment information" style="ellipse;whiteSpace=wrap;html=1;aspect=fixed;" parent="1" vertex="1">
          <mxGeometry x="427" y="658" width="150" height="50" as="geometry" />
        </mxCell>
        <mxCell id="LkTkyItPIDJJ6-VaHPxY-194" value="" style="endArrow=openThin;html=1;rounded=0;exitX=1;exitY=0.5;exitDx=0;exitDy=0;dashed=1;endFill=0;entryX=0;entryY=0;entryDx=0;entryDy=0;endSize=12;" parent="1" source="LkTkyItPIDJJ6-VaHPxY-228" target="LkTkyItPIDJJ6-VaHPxY-249" edge="1">
          <mxGeometry width="50" height="50" relative="1" as="geometry">
            <mxPoint x="1345.143593128807" y="137.50126265847075" as="sourcePoint" />
            <mxPoint x="1209.996406871193" y="116.99873734152925" as="targetPoint" />
          </mxGeometry>
        </mxCell>
        <mxCell id="LkTkyItPIDJJ6-VaHPxY-196" value="&amp;lt;&amp;lt;include&amp;gt;&amp;gt;" style="text;html=1;align=center;verticalAlign=middle;resizable=0;points=[];autosize=1;strokeColor=none;fillColor=none;" parent="1" vertex="1">
          <mxGeometry x="562" y="483" width="90" height="30" as="geometry" />
        </mxCell>
        <mxCell id="LkTkyItPIDJJ6-VaHPxY-197" value="" style="endArrow=openThin;html=1;rounded=0;exitX=0;exitY=1;exitDx=0;exitDy=0;dashed=1;endFill=0;endSize=12;entryX=1;entryY=0;entryDx=0;entryDy=0;" parent="1" source="LkTkyItPIDJJ6-VaHPxY-249" target="LkTkyItPIDJJ6-VaHPxY-243" edge="1">
          <mxGeometry width="50" height="50" relative="1" as="geometry">
            <mxPoint x="1325.003593128807" y="252.00126265847075" as="sourcePoint" />
            <mxPoint x="1189.856406871193" y="231.49873734152925" as="targetPoint" />
          </mxGeometry>
        </mxCell>
        <mxCell id="LkTkyItPIDJJ6-VaHPxY-198" value="&amp;lt;&amp;lt;include&amp;gt;&amp;gt;" style="text;html=1;align=center;verticalAlign=middle;resizable=0;points=[];autosize=1;strokeColor=none;fillColor=none;" parent="1" vertex="1">
          <mxGeometry x="328" y="569" width="90" height="30" as="geometry" />
        </mxCell>
        <mxCell id="LkTkyItPIDJJ6-VaHPxY-204" value="" style="edgeStyle=orthogonalEdgeStyle;rounded=0;orthogonalLoop=1;jettySize=auto;html=1;" parent="1" target="LkTkyItPIDJJ6-VaHPxY-205" edge="1">
          <mxGeometry relative="1" as="geometry">
            <mxPoint x="1090" y="880" as="sourcePoint" />
            <Array as="points">
              <mxPoint x="1090" y="636" />
              <mxPoint x="745" y="636" />
            </Array>
          </mxGeometry>
        </mxCell>
        <mxCell id="LkTkyItPIDJJ6-VaHPxY-205" value="&lt;p class=&quot;MsoNormal&quot;&gt;&lt;span style=&quot;mso-spacerun:&#39;yes&#39;;font-family:宋体;mso-ascii-font-family:Calibri;&lt;br/&gt;mso-hansi-font-family:Calibri;mso-bidi-font-family:&#39;Times New Roman&#39;;font-size:10.5000pt;&lt;br/&gt;mso-font-kerning:1.0000pt;&quot;&gt;&lt;font face=&quot;Calibri&quot;&gt;Examine&amp;nbsp;&lt;/font&gt;&lt;/span&gt;&lt;/p&gt;" style="ellipse;whiteSpace=wrap;html=1;aspect=fixed;" parent="1" vertex="1">
          <mxGeometry x="670" y="663" width="150" height="40" as="geometry" />
        </mxCell>
        <mxCell id="LkTkyItPIDJJ6-VaHPxY-206" value="&lt;p class=&quot;MsoNormal&quot;&gt;&lt;font face=&quot;Calibri&quot;&gt;&lt;span style=&quot;font-size: 14px;&quot;&gt;Announce&lt;/span&gt;&lt;/font&gt;&lt;br&gt;&lt;/p&gt;" style="ellipse;whiteSpace=wrap;html=1;" parent="1" vertex="1">
          <mxGeometry x="897" y="764" width="150" height="50" as="geometry" />
        </mxCell>
        <mxCell id="LkTkyItPIDJJ6-VaHPxY-207" value="&lt;p class=&quot;MsoNormal&quot;&gt;&lt;font face=&quot;Calibri&quot;&gt;&lt;span style=&quot;font-size: 14px;&quot;&gt;Examine new tutorial&lt;/span&gt;&lt;/font&gt;&lt;br&gt;&lt;/p&gt;" style="ellipse;whiteSpace=wrap;html=1;" parent="1" vertex="1">
          <mxGeometry x="897" y="658" width="150" height="50" as="geometry" />
        </mxCell>
        <mxCell id="LkTkyItPIDJJ6-VaHPxY-208" value="&lt;p class=&quot;MsoNormal&quot;&gt;&lt;font face=&quot;Calibri&quot;&gt;&lt;span style=&quot;font-size: 14px;&quot;&gt;Examine comments&lt;/span&gt;&lt;/font&gt;&lt;/p&gt;" style="ellipse;whiteSpace=wrap;html=1;" parent="1" vertex="1">
          <mxGeometry x="670" y="764" width="150" height="50" as="geometry" />
        </mxCell>
        <mxCell id="LkTkyItPIDJJ6-VaHPxY-209" value="" style="endArrow=block;endSize=15;endFill=0;html=1;rounded=0;exitX=0;exitY=0.5;exitDx=0;exitDy=0;entryX=1;entryY=0.5;entryDx=0;entryDy=0;" parent="1" source="LkTkyItPIDJJ6-VaHPxY-207" target="LkTkyItPIDJJ6-VaHPxY-205" edge="1">
          <mxGeometry width="160" relative="1" as="geometry">
            <mxPoint x="314" y="539" as="sourcePoint" />
            <mxPoint x="339" y="449" as="targetPoint" />
          </mxGeometry>
        </mxCell>
        <mxCell id="LkTkyItPIDJJ6-VaHPxY-210" value="" style="endArrow=block;endSize=15;endFill=0;html=1;rounded=0;exitX=0.5;exitY=0;exitDx=0;exitDy=0;entryX=0.5;entryY=1;entryDx=0;entryDy=0;" parent="1" source="LkTkyItPIDJJ6-VaHPxY-208" target="LkTkyItPIDJJ6-VaHPxY-205" edge="1">
          <mxGeometry width="160" relative="1" as="geometry">
            <mxPoint x="324" y="549" as="sourcePoint" />
            <mxPoint x="759" y="599" as="targetPoint" />
          </mxGeometry>
        </mxCell>
        <mxCell id="LkTkyItPIDJJ6-VaHPxY-211" value="" style="endArrow=open;endFill=1;endSize=12;html=1;rounded=0;entryX=1;entryY=1;entryDx=0;entryDy=0;" parent="1" target="LkTkyItPIDJJ6-VaHPxY-206" edge="1">
          <mxGeometry width="160" relative="1" as="geometry">
            <mxPoint x="1090" y="880" as="sourcePoint" />
            <mxPoint x="872" y="695" as="targetPoint" />
          </mxGeometry>
        </mxCell>
        <mxCell id="LkTkyItPIDJJ6-VaHPxY-215" value="Get discount" style="ellipse;whiteSpace=wrap;html=1;aspect=fixed;" parent="1" vertex="1">
          <mxGeometry x="-183" y="39" width="150" height="40" as="geometry" />
        </mxCell>
        <mxCell id="LkTkyItPIDJJ6-VaHPxY-216" value="Buy tutorials" style="ellipse;whiteSpace=wrap;html=1;" parent="1" vertex="1">
          <mxGeometry x="190" y="203" width="150" height="50" as="geometry" />
        </mxCell>
        <mxCell id="LkTkyItPIDJJ6-VaHPxY-217" value="&amp;lt;&amp;lt;extend&amp;gt;&amp;gt;" style="endArrow=open;endSize=12;dashed=1;html=1;rounded=0;entryX=0;entryY=0;entryDx=0;entryDy=0;exitX=1;exitY=1;exitDx=0;exitDy=0;" parent="1" source="LkTkyItPIDJJ6-VaHPxY-215" target="LkTkyItPIDJJ6-VaHPxY-216" edge="1">
          <mxGeometry x="-0.7827" y="-20" width="160" relative="1" as="geometry">
            <mxPoint x="41" y="289" as="sourcePoint" />
            <mxPoint x="41" y="359" as="targetPoint" />
            <mxPoint as="offset" />
          </mxGeometry>
        </mxCell>
        <mxCell id="LkTkyItPIDJJ6-VaHPxY-218" value="Quit tutorials" style="ellipse;whiteSpace=wrap;html=1;" parent="1" vertex="1">
          <mxGeometry x="190" y="321" width="150" height="50" as="geometry" />
        </mxCell>
        <mxCell id="LkTkyItPIDJJ6-VaHPxY-219" value="Schedule punch in" style="ellipse;whiteSpace=wrap;html=1;" parent="1" vertex="1">
          <mxGeometry x="427" y="321" width="150" height="50" as="geometry" />
        </mxCell>
        <mxCell id="LkTkyItPIDJJ6-VaHPxY-220" value="Get rewards" style="ellipse;whiteSpace=wrap;html=1;" parent="1" vertex="1">
          <mxGeometry x="664" y="203" width="150" height="50" as="geometry" />
        </mxCell>
        <mxCell id="LkTkyItPIDJJ6-VaHPxY-222" value="Recommended fitness equipment by the system" style="ellipse;whiteSpace=wrap;html=1;" parent="1" vertex="1">
          <mxGeometry x="427" y="429" width="150" height="50" as="geometry" />
        </mxCell>
        <mxCell id="LkTkyItPIDJJ6-VaHPxY-223" value="Intelligent analysis of fitness movements" style="ellipse;whiteSpace=wrap;html=1;" parent="1" vertex="1">
          <mxGeometry x="664" y="313" width="150" height="50" as="geometry" />
        </mxCell>
        <mxCell id="LkTkyItPIDJJ6-VaHPxY-226" value="Intelligent analysis of fitness movements" style="ellipse;whiteSpace=wrap;html=1;aspect=fixed;" parent="1" vertex="1">
          <mxGeometry x="190" y="549" width="150" height="50" as="geometry" />
        </mxCell>
        <mxCell id="LkTkyItPIDJJ6-VaHPxY-228" value="Schedule punch in" style="ellipse;whiteSpace=wrap;html=1;aspect=fixed;" parent="1" vertex="1">
          <mxGeometry x="190" y="429" width="150" height="50" as="geometry" />
        </mxCell>
        <mxCell id="LkTkyItPIDJJ6-VaHPxY-230" value="Review the legality of the content" style="ellipse;whiteSpace=wrap;html=1;aspect=fixed;" parent="1" vertex="1">
          <mxGeometry x="670" y="429" width="150" height="50" as="geometry" />
        </mxCell>
        <mxCell id="LkTkyItPIDJJ6-VaHPxY-240" value="" style="endArrow=none;html=1;rounded=0;entryX=1;entryY=0.5;entryDx=0;entryDy=0;endFill=0;" parent="1" target="LkTkyItPIDJJ6-VaHPxY-230" edge="1">
          <mxGeometry width="50" height="50" relative="1" as="geometry">
            <mxPoint x="1080" y="500" as="sourcePoint" />
            <mxPoint x="1788" y="1168" as="targetPoint" />
          </mxGeometry>
        </mxCell>
        <mxCell id="LkTkyItPIDJJ6-VaHPxY-243" value="View the basic usage of fitness equipment" style="ellipse;whiteSpace=wrap;html=1;aspect=fixed;" parent="1" vertex="1">
          <mxGeometry x="190" y="658" width="150" height="50" as="geometry" />
        </mxCell>
        <mxCell id="LkTkyItPIDJJ6-VaHPxY-245" value="" style="endArrow=none;html=1;rounded=0;entryX=1;entryY=0.5;entryDx=0;entryDy=0;endFill=0;" parent="1" target="LkTkyItPIDJJ6-VaHPxY-188" edge="1">
          <mxGeometry width="50" height="50" relative="1" as="geometry">
            <mxPoint x="1080" y="500" as="sourcePoint" />
            <mxPoint x="1380" y="327" as="targetPoint" />
          </mxGeometry>
        </mxCell>
        <mxCell id="LkTkyItPIDJJ6-VaHPxY-246" value="Fitness equipment AI intelligent Q&amp;amp;A" style="ellipse;whiteSpace=wrap;html=1;aspect=fixed;" parent="1" vertex="1">
          <mxGeometry x="-183" y="146" width="150" height="50" as="geometry" />
        </mxCell>
        <mxCell id="LkTkyItPIDJJ6-VaHPxY-248" value="" style="endArrow=none;endFill=0;endSize=12;html=1;rounded=0;exitX=1;exitY=0.5;exitDx=0;exitDy=0;" parent="1" source="LkTkyItPIDJJ6-VaHPxY-215" edge="1">
          <mxGeometry width="160" relative="1" as="geometry">
            <mxPoint x="130" y="83" as="sourcePoint" />
            <mxPoint x="82" y="60" as="targetPoint" />
          </mxGeometry>
        </mxCell>
        <mxCell id="LkTkyItPIDJJ6-VaHPxY-249" value="Recommended fitness equipment by the system" style="ellipse;whiteSpace=wrap;html=1;" parent="1" vertex="1">
          <mxGeometry x="427" y="547" width="150" height="50" as="geometry" />
        </mxCell>
        <mxCell id="dqEHkbKvDNsBxlLq0mtT-2" value="" style="rounded=0;whiteSpace=wrap;html=1;fillColor=none;" vertex="1" parent="1">
          <mxGeometry x="170" y="-220" width="890" height="1270" as="geometry" />
        </mxCell>
        <mxCell id="dqEHkbKvDNsBxlLq0mtT-3" value="" style="rounded=0;whiteSpace=wrap;html=1;fillColor=none;" vertex="1" parent="1">
          <mxGeometry x="-450" width="470" height="720" as="geometry" />
        </mxCell>
      </root>
    </mxGraphModel>
  </diagram>
</mxfile>
